<svg aria-hidden="true" xmlns="http://www.w3.org/2000/svg" xmlns:xlink="http://www.w3.org/1999/xlink"><symbol viewBox="0 0 16 16" id="arrowdown" xmlns="http://www.w3.org/2000/svg">
<path d="M4 6L8 10L12 6" stroke-width="1.5" stroke-linecap="round" stroke-linejoin="round"/>
</symbol><symbol viewBox="0 0 34 34" id="call" xmlns="http://www.w3.org/2000/svg">
<g clip-path="url(#bclip0_68_390)">
<path d="M23.313 14.1063C23.0385 13.7076 22.5146 13.6132 22.1219 13.8777C21.7292 14.1422 21.6239 14.6785 21.8871 15.0703C22.6808 16.2484 22.6789 17.7728 21.8825 18.955L21.8818 18.9557C21.652 19.2954 21.6957 19.7531 21.9844 20.0419C22.0231 20.0806 22.0654 20.1158 22.1119 20.1482C22.5051 20.4099 23.0406 20.3053 23.3058 19.9119C24.4954 18.1463 24.4993 15.8679 23.313 14.1063Z"/>
<path d="M25.7321 11.6012C25.597 11.4209 25.3919 11.3091 25.1655 11.2833C24.9342 11.2555 24.7062 11.3215 24.524 11.4686C24.1538 11.7641 24.0929 12.3052 24.3879 12.675C26.4243 15.223 26.4203 18.7903 24.3787 21.3474C24.1051 21.69 24.1311 22.1809 24.4395 22.4894C24.4627 22.5126 24.4867 22.5337 24.5128 22.5541C24.6917 22.6977 24.9152 22.7616 25.1438 22.7358C25.3717 22.7093 25.5757 22.5968 25.7192 22.4166C28.267 19.2266 28.2732 14.7797 25.7321 11.6012Z"/>
<path fill-rule="evenodd" clip-rule="evenodd" d="M15.6278 17.0026C15.6286 22.6433 19.5309 20.0208 19.5321 23.6115C19.5326 27.0739 20.1809 28.4158 15.7941 28.4152C15.2985 28.3613 10.8959 29.2722 10.8942 17.0027C10.8925 4.73179 15.2953 5.63937 15.7909 5.58555C20.1891 5.58541 19.529 6.92716 19.5295 10.3896C19.53 13.981 15.627 11.362 15.6278 17.0026Z"/>
</g>
<defs>
<clipPath id="bclip0_68_390">
<rect width="24" height="24" transform="translate(17 0.0292969) rotate(45)"/>
</clipPath>
</defs>
</symbol><symbol viewBox="0 0 20 20" id="cart" xmlns="http://www.w3.org/2000/svg">
<g clip-path="url(#cclip0_68_408)">
<path d="M7.50032 18.3334C7.96056 18.3334 8.33365 17.9603 8.33365 17.5001C8.33365 17.0398 7.96056 16.6667 7.50032 16.6667C7.04009 16.6667 6.66699 17.0398 6.66699 17.5001C6.66699 17.9603 7.04009 18.3334 7.50032 18.3334Z" stroke-width="2" stroke-linecap="round" stroke-linejoin="round"/>
<path d="M16.6663 18.3334C17.1266 18.3334 17.4997 17.9603 17.4997 17.5001C17.4997 17.0398 17.1266 16.6667 16.6663 16.6667C16.2061 16.6667 15.833 17.0398 15.833 17.5001C15.833 17.9603 16.2061 18.3334 16.6663 18.3334Z" stroke-width="2" stroke-linecap="round" stroke-linejoin="round"/>
<path d="M0.833008 0.833252H4.16634L6.39967 11.9916C6.47588 12.3752 6.6846 12.7199 6.98929 12.9652C7.29399 13.2105 7.67525 13.3407 8.06634 13.3333H16.1663C16.5574 13.3407 16.9387 13.2105 17.2434 12.9652C17.5481 12.7199 17.7568 12.3752 17.833 11.9916L19.1663 4.99992H4.99967" stroke-width="2" stroke-linecap="round" stroke-linejoin="round"/>
</g>
<defs>
<clipPath id="cclip0_68_408">
<rect width="20" height="20"/>
</clipPath>
</defs>
</symbol><symbol viewBox="0 0 22 22" id="cartbtn" xmlns="http://www.w3.org/2000/svg">
<path d="M3.50002 4.91384L0.257019 1.67184L1.67202 0.256836L4.91402 3.49984H20.156C20.3119 3.49983 20.4656 3.53625 20.6049 3.6062C20.7442 3.67616 20.8652 3.7777 20.9583 3.90273C21.0513 4.02776 21.1139 4.17282 21.1409 4.32632C21.168 4.47983 21.1588 4.63753 21.114 4.78684L18.714 12.7868C18.6523 12.9929 18.5257 13.1736 18.3531 13.302C18.1806 13.4305 17.9712 13.4999 17.756 13.4998H5.50002V15.4998H16.5V17.4998H4.50002C4.2348 17.4998 3.98045 17.3945 3.79291 17.2069C3.60538 17.0194 3.50002 16.7651 3.50002 16.4998V4.91384ZM5.00002 21.4998C4.60219 21.4998 4.22066 21.3418 3.93936 21.0605C3.65805 20.7792 3.50002 20.3977 3.50002 19.9998C3.50002 19.602 3.65805 19.2205 3.93936 18.9392C4.22066 18.6579 4.60219 18.4998 5.00002 18.4998C5.39784 18.4998 5.77937 18.6579 6.06068 18.9392C6.34198 19.2205 6.50002 19.602 6.50002 19.9998C6.50002 20.3977 6.34198 20.7792 6.06068 21.0605C5.77937 21.3418 5.39784 21.4998 5.00002 21.4998ZM17 21.4998C16.6022 21.4998 16.2207 21.3418 15.9394 21.0605C15.6581 20.7792 15.5 20.3977 15.5 19.9998C15.5 19.602 15.6581 19.2205 15.9394 18.9392C16.2207 18.6579 16.6022 18.4998 17 18.4998C17.3978 18.4998 17.7794 18.6579 18.0607 18.9392C18.342 19.2205 18.5 19.602 18.5 19.9998C18.5 20.3977 18.342 20.7792 18.0607 21.0605C17.7794 21.3418 17.3978 21.4998 17 21.4998Z"/>
</symbol><symbol viewBox="0 0 24 24" id="catalog" xmlns="http://www.w3.org/2000/svg">
<path d="M3 12H21" stroke-width="2" stroke-linecap="round" stroke-linejoin="round"/>
<path d="M3 6H17" stroke-width="2" stroke-linecap="round" stroke-linejoin="round"/>
<path d="M3 18H12" stroke-width="2" stroke-linecap="round" stroke-linejoin="round"/>
</symbol><symbol viewBox="0 0 80 70" id="check" xmlns="http://www.w3.org/2000/svg">
<g filter="url(#ffilter0_d_68_1176)">
<path fill-rule="evenodd" clip-rule="evenodd" d="M59.1014 21.2322C60.0777 22.2085 60.0777 23.7915 59.1014 24.7678L35.2681 48.6011C34.7993 49.0699 34.1634 49.3333 33.5003 49.3333C32.8373 49.3333 32.2014 49.0699 31.7326 48.6011L20.8992 37.7678C19.9229 36.7915 19.9229 35.2085 20.8992 34.2322C21.8755 33.2559 23.4584 33.2559 24.4348 34.2322L33.5003 43.2978L55.5659 21.2322C56.5422 20.2559 58.1251 20.2559 59.1014 21.2322Z"/>
</g>
<defs>
<filter id="ffilter0_d_68_1176" x="0.166992" y="0.5" width="79.6665" height="68.8333" filterUnits="userSpaceOnUse" color-interpolation-filters="sRGB">
<feFlood flood-opacity="0" result="BackgroundImageFix"/>
<feColorMatrix in="SourceAlpha" type="matrix" values="0 0 0 0 0 0 0 0 0 0 0 0 0 0 0 0 0 0 127 0" result="hardAlpha"/>
<feOffset/>
<feGaussianBlur stdDeviation="10"/>
<feComposite in2="hardAlpha" operator="out"/>
<feColorMatrix type="matrix" values="0 0 0 0 1 0 0 0 0 1 0 0 0 0 1 0 0 0 1 0"/>
<feBlend mode="normal" in2="BackgroundImageFix" result="effect1_dropShadow_68_1176"/>
<feBlend mode="normal" in="SourceGraphic" in2="effect1_dropShadow_68_1176" result="shape"/>
</filter>
</defs>
</symbol><symbol viewBox="0 0 27 37" id="chess" xmlns="http://www.w3.org/2000/svg">
<path d="M24.25 30V29.3655C24.2498 28.1727 23.9258 27.0023 23.3125 25.9792C22.9247 25.3355 22.6851 24.6135 22.611 23.8656C22.5369 23.1178 22.6303 22.3628 22.8843 21.6555L23.7992 19.0928C24.3866 17.4481 24.6348 15.7016 24.529 13.9584C24.4232 12.2152 23.9655 10.5115 23.1835 8.95001C22.4016 7.38848 21.3115 6.00145 19.9791 4.87252C18.6467 3.74359 17.0995 2.89614 15.4307 2.38125C10.1432 0.75 10.1433 0.75 10 0.75C9.80109 0.75 9.61032 0.829018 9.46967 0.96967C9.32902 1.11032 9.25 1.30109 9.25 1.5V4.10925C8.31025 4.76625 5.50825 6.72375 3.7 7.96725C3.09595 8.38486 2.60198 8.9425 2.26031 9.59253C1.91864 10.2426 1.73944 10.9656 1.738 11.7C1.73414 12.0439 1.79971 12.3851 1.93078 12.703C2.06185 13.021 2.25573 13.3093 2.5008 13.5506C2.74588 13.7919 3.03712 13.9812 3.35709 14.1073C3.67707 14.2334 4.0192 14.2937 4.363 14.2845C4.85039 14.2854 5.32795 14.1474 5.73973 13.8867C6.1515 13.6259 6.48044 13.2532 6.688 12.8123L9.184 13.1243C9.83949 13.2057 10.5045 13.0947 11.098 12.8048C11.2375 13.5415 11.1799 14.3021 10.9308 15.0093C10.6817 15.7166 10.2501 16.3455 9.67975 16.8323L5.956 19.9823C4.87286 20.8962 4.00239 22.0356 3.40545 23.321C2.80851 24.6063 2.49949 26.0065 2.5 27.4237V30C1.90326 30 1.33097 30.2371 0.90901 30.659C0.487053 31.081 0.25 31.6533 0.25 32.25V36C0.25 36.1989 0.329018 36.3897 0.46967 36.5303C0.610322 36.671 0.801088 36.75 1 36.75H25.75C25.9489 36.75 26.1397 36.671 26.2803 36.5303C26.421 36.3897 26.5 36.1989 26.5 36V32.25C26.5 31.6533 26.2629 31.081 25.841 30.659C25.419 30.2371 24.8467 30 24.25 30ZM21.4953 8.97975C22.3366 10.419 22.8525 12.0251 23.0064 13.6851C23.1603 15.345 22.9487 17.0186 22.3862 18.588L21.475 21.15C21.146 22.0661 21.0251 23.044 21.1211 24.0127C21.2171 24.9814 21.5276 25.9165 22.03 26.7502C22.5024 27.5407 22.7512 28.4446 22.75 29.3655V30H21.25C21.2673 28.9369 21.0291 27.8852 20.5555 26.9333C20.4055 26.463 18.8553 24.5153 19.8738 21.8685L20.9147 19.1618C21.4457 17.7807 21.6912 16.3064 21.6365 14.8279C21.5818 13.3493 21.228 11.8972 20.5965 10.5591C19.9651 9.22111 19.069 8.02492 17.9623 7.04282C16.8557 6.06071 15.5616 5.31306 14.158 4.845L13.6165 4.665L13.231 3.27225L14.9882 3.8145C17.7294 4.65721 20.0525 6.50136 21.4953 8.97975ZM4 27.4237C3.99872 26.2243 4.25949 25.039 4.76408 23.9508C5.26867 22.8626 6.00489 21.8977 6.92125 21.1238L10.645 17.9738C11.5223 17.2248 12.1547 16.2297 12.4604 15.1174C12.766 14.0051 12.7309 12.8266 12.3595 11.7345C12.7754 11.1563 12.9994 10.4622 13 9.75C13 9.55109 12.921 9.36032 12.7803 9.21967C12.6397 9.07902 12.4489 9 12.25 9C12.0511 9 11.8603 9.07902 11.7197 9.21967C11.579 9.36032 11.5 9.55109 11.5 9.75C11.4999 10.0192 11.4427 10.2852 11.332 10.5306C11.2213 10.7759 11.0597 10.9949 10.8579 11.1731C10.6561 11.3512 10.4188 11.4845 10.1616 11.5639C9.90447 11.6434 9.63335 11.6673 9.36625 11.634L6.87025 11.325C6.55588 11.2876 6.23769 11.3498 5.96052 11.5027C5.68335 11.6557 5.46116 11.8918 5.32525 12.1777C5.23813 12.3676 5.09611 12.5271 4.91751 12.6355C4.73891 12.7439 4.53192 12.7963 4.32325 12.786C4.17592 12.7901 4.02936 12.7634 3.89297 12.7075C3.75658 12.6516 3.63337 12.5679 3.53126 12.4616C3.42914 12.3553 3.35037 12.2288 3.3 12.0903C3.24962 11.9518 3.22876 11.8043 3.23875 11.6573C3.24461 11.1739 3.3664 10.699 3.59387 10.2725C3.82135 9.84604 4.14787 9.48037 4.546 9.20625C6.75325 7.6905 10.4298 5.11725 10.4298 5.11725C10.529 5.04786 10.61 4.95547 10.6657 4.84798C10.7215 4.74049 10.7504 4.6211 10.75 4.5V2.51025L11.5292 2.74875L12.2792 5.44875C12.3121 5.56733 12.3736 5.67602 12.4583 5.76522C12.5431 5.85442 12.6485 5.9214 12.7653 5.96025L13.6863 6.267C14.8974 6.67102 16.0141 7.31628 16.969 8.16382C17.9239 9.01137 18.6971 10.0436 19.242 11.1983C19.7869 12.3529 20.0922 13.606 20.1394 14.8819C20.1866 16.1578 19.9748 17.43 19.5168 18.6217L18.475 21.33C17.2 24.6548 19.084 27.18 19.2153 27.6038C19.584 28.3477 19.7675 29.1698 19.75 30H4V27.4237ZM25 35.25H1.75V32.25C1.75 32.0511 1.82902 31.8603 1.96967 31.7197C2.11032 31.579 2.30109 31.5 2.5 31.5H24.25C24.4489 31.5 24.6397 31.579 24.7803 31.7197C24.921 31.8603 25 32.0511 25 32.25V35.25Z"/>
</symbol><symbol viewBox="0 0 37 39" id="discount" xmlns="http://www.w3.org/2000/svg">
<path d="M35.7949 17.8776C36.2351 16.5242 36.2372 15.0664 35.8009 13.7118C35.3647 12.3571 34.5123 11.1745 33.3651 10.3323C32.473 9.6799 31.8113 8.76085 31.4756 7.70786C31.0477 6.35594 30.2006 5.17531 29.0569 4.33696C27.9133 3.4986 26.5324 3.04604 25.1144 3.0448C24.0141 3.04663 22.9422 2.69524 22.0565 2.04233C20.9177 1.20257 19.54 0.749512 18.1251 0.749512C16.7102 0.749512 15.3324 1.20257 14.1937 2.04233C13.308 2.69524 12.2361 3.04663 11.1357 3.0448C9.71769 3.04604 8.33686 3.4986 7.1932 4.33696C6.04954 5.17531 5.20242 6.35594 4.77451 7.70786C4.43881 8.76085 3.77713 9.6799 2.88501 10.3323C1.7378 11.1745 0.885429 12.3571 0.449185 13.7118C0.0129407 15.0664 0.0150444 16.5242 0.455197 17.8776C0.797023 18.9319 0.797023 20.0672 0.455197 21.1215C0.0150444 22.4749 0.0129407 23.9327 0.449185 25.2873C0.885429 26.642 1.7378 27.8246 2.88501 28.6668C3.77713 29.3192 4.43881 30.2382 4.77451 31.2912C5.20242 32.6432 6.04954 33.8238 7.1932 34.6621C8.33686 35.5005 9.71769 35.9531 11.1357 35.9543C12.2361 35.9525 13.308 36.3039 14.1937 36.9568C15.3324 37.7965 16.7102 38.2496 18.1251 38.2496C19.54 38.2496 20.9177 37.7965 22.0565 36.9568C22.9422 36.3039 24.0141 35.9525 25.1144 35.9543C26.5324 35.9531 27.9133 35.5005 29.0569 34.6621C30.2006 33.8238 31.0477 32.6432 31.4756 31.2912C31.8113 30.2382 32.473 29.3192 33.3651 28.6668C34.5123 27.8246 35.3647 26.642 35.8009 25.2873C36.2372 23.9327 36.2351 22.4749 35.7949 21.1215C35.4531 20.0672 35.4531 18.9319 35.7949 17.8776ZM34.3812 21.585C34.7235 22.6376 34.7252 23.7714 34.3859 24.825C34.0466 25.8786 33.3836 26.7984 32.4913 27.4534C31.3444 28.2923 30.4937 29.4739 30.0619 30.8277C29.7291 31.8791 29.0702 32.7974 28.1807 33.4494C27.2912 34.1015 26.2173 34.4535 25.1144 34.4546C23.6996 34.4521 22.3215 34.9038 21.1827 35.7433C20.297 36.3965 19.2255 36.7489 18.1251 36.7489C17.0246 36.7489 15.9531 36.3965 15.0675 35.7433C13.9287 34.9038 12.5505 34.4521 11.1357 34.4546C10.0328 34.4535 8.95889 34.1015 8.06941 33.4494C7.17993 32.7974 6.52109 31.8791 6.18828 30.8277C5.75644 29.4739 4.90571 28.2923 3.75883 27.4534C2.86653 26.7984 2.20356 25.8786 1.86426 24.825C1.52495 23.7714 1.5266 22.6376 1.86896 21.585C2.30804 20.2294 2.30804 18.7697 1.86896 17.4141C1.5266 16.3614 1.52495 15.2277 1.86425 14.1741C2.20355 13.1204 2.86652 12.2007 3.75881 11.5457C4.9057 10.7068 5.75643 9.5252 6.18826 8.17144C6.52107 7.11997 7.17992 6.20171 8.0694 5.54965C8.95889 4.89758 10.0328 4.54556 11.1357 4.54455C12.5505 4.54701 13.9287 4.09525 15.0675 3.25576C15.953 2.60247 17.0246 2.25 18.1251 2.25C19.2255 2.25 20.2971 2.60247 21.1827 3.25576C22.3214 4.09525 23.6996 4.54701 25.1144 4.54455C26.2173 4.54556 27.2912 4.89759 28.1807 5.54965C29.0702 6.20172 29.729 7.11997 30.0619 8.17145C30.4937 9.5252 31.3444 10.7068 32.4913 11.5457C33.3836 12.2007 34.0466 13.1205 34.3859 14.1741C34.7252 15.2277 34.7235 16.3614 34.3812 17.4141C33.9421 18.7697 33.9421 20.2294 34.3812 21.585H34.3812Z"/>
<path d="M14.3174 28.7481C14.4076 28.7862 14.5044 28.806 14.6022 28.8064C14.7001 28.8069 14.7971 28.7879 14.8875 28.7506C14.978 28.7133 15.0602 28.6585 15.1293 28.5892C15.1985 28.52 15.2532 28.4377 15.2903 28.3472L22.5652 10.857C22.6418 10.6741 22.643 10.4683 22.5685 10.2845C22.4941 10.1007 22.3501 9.95365 22.1679 9.87545C22.0778 9.83728 21.981 9.81738 21.8831 9.8169C21.7852 9.81643 21.6882 9.83539 21.5977 9.87268C21.5072 9.90997 21.425 9.96486 21.3559 10.0342C21.2868 10.1034 21.2321 10.1858 21.195 10.2764L13.9201 27.7665C13.8436 27.9495 13.8424 28.1552 13.9168 28.3391C13.9912 28.5229 14.1352 28.6699 14.3174 28.7481Z"/>
<path d="M13.2124 18.039C15.3947 18.039 17.1699 16.0121 17.1699 13.5205C17.1699 11.029 15.3947 9.00171 13.2124 9.00171C11.0301 9.00171 9.25488 11.029 9.25488 13.5205C9.25488 16.0121 11.0301 18.039 13.2124 18.039ZM13.2124 10.5014C14.575 10.5014 15.6836 11.8557 15.6836 13.5205C15.6836 15.185 14.575 16.5393 13.2124 16.5393C11.8498 16.5393 10.7412 15.185 10.7412 13.5205C10.7412 11.8557 11.8498 10.5014 13.2124 10.5014Z"/>
<path d="M23.0376 20.96C20.8553 20.96 19.0801 22.9869 19.0801 25.4784C19.0801 27.9699 20.8553 29.9972 23.0376 29.9972C25.2199 29.9972 26.9951 27.9699 26.9951 25.4784C26.9951 22.9868 25.2199 20.96 23.0376 20.96ZM23.0376 28.4975C21.675 28.4975 20.5664 27.1432 20.5664 25.4784C20.5664 23.814 21.675 22.4596 23.0376 22.4596C24.4002 22.4596 25.5088 23.814 25.5088 25.4784C25.5088 27.1432 24.4002 28.4975 23.0376 28.4975Z"/>
<path d="M18.1249 5.25244C17.9272 5.2541 17.738 5.33383 17.5988 5.47427C17.4595 5.61471 17.3813 5.80449 17.3813 6.00228C17.3813 6.20007 17.4595 6.38985 17.5988 6.53029C17.738 6.67073 17.9272 6.75046 18.1249 6.75212C21.4895 6.77097 24.7092 8.12365 27.0777 10.5134C29.4462 12.9031 30.77 16.1348 30.7588 19.4994C30.7579 19.5975 30.7765 19.6949 30.8135 19.7858C30.8504 19.8768 30.905 19.9595 30.9741 20.0292C31.0432 20.0989 31.1254 20.1543 31.216 20.192C31.3066 20.2298 31.4038 20.2493 31.502 20.2493C31.6001 20.2493 31.6973 20.2298 31.7879 20.192C31.8785 20.1543 31.9608 20.0989 32.0299 20.0292C32.099 19.9595 32.1536 19.8768 32.1905 19.7858C32.2275 19.6949 32.246 19.5975 32.2452 19.4994C32.2576 15.739 30.778 12.1272 28.1309 9.4563C25.4837 6.78542 21.8853 5.27358 18.1249 5.25244Z"/>
<path d="M18.1252 32.2469C14.7606 32.228 11.5409 30.8754 9.17243 28.4856C6.80394 26.0959 5.48009 22.8642 5.4913 19.4996C5.49218 19.4015 5.47361 19.3041 5.43665 19.2132C5.3997 19.1222 5.3451 19.0395 5.276 18.9698C5.20691 18.9001 5.12468 18.8447 5.03408 18.807C4.94348 18.7692 4.84629 18.7498 4.74813 18.7498C4.64997 18.7498 4.55278 18.7692 4.46218 18.807C4.37157 18.8447 4.28935 18.9001 4.22025 18.9698C4.15116 19.0395 4.09655 19.1222 4.0596 19.2132C4.02265 19.3041 4.00408 19.4015 4.00496 19.4996C3.99251 23.26 5.47213 26.8718 8.11925 29.5427C10.7664 32.2136 14.3648 33.7254 18.1252 33.7466C18.323 33.7449 18.5121 33.6652 18.6513 33.5247C18.7906 33.3843 18.8688 33.1945 18.8688 32.9967C18.8688 32.7989 18.7906 32.6092 18.6513 32.4687C18.5121 32.3283 18.323 32.2485 18.1252 32.2469Z"/>
</symbol><symbol viewBox="0 0 26 26" id="icon3d" xmlns="http://www.w3.org/2000/svg">
<g clip-path="url(#iclip0_68_1940)">
<path d="M22.2005 7.02882C22.8672 6.64392 22.8672 5.68166 22.2005 5.29676L13.5259 0.288663C13.2165 0.110037 12.8353 0.110038 12.5259 0.288666L3.85156 5.29677C3.18489 5.68166 3.18489 6.64391 3.85155 7.02882L12.5259 12.0371C12.8353 12.2157 13.2165 12.2157 13.5259 12.0371L22.2005 7.02882Z"/>
<path d="M13.8008 24.2682C13.8008 25.038 14.6341 25.5191 15.3008 25.1342L23.9781 20.1243C24.2875 19.9457 24.4781 19.6156 24.4781 19.2583V10.1642C24.4781 9.39436 23.6448 8.91323 22.9781 9.29812L14.3008 14.3078C13.9914 14.4865 13.8008 14.8166 13.8008 15.1739V24.2682Z"/>
<path d="M3.07422 9.29814C2.40755 8.91324 1.57422 9.39437 1.57422 10.1642V19.2583C1.57422 19.6156 1.76481 19.9457 2.07421 20.1243L10.7514 25.1342C11.418 25.5191 12.2514 25.038 12.2514 24.2682V15.1738C12.2514 14.8166 12.0608 14.4865 11.7514 14.3078L3.07422 9.29814Z"/>
</g>
<defs>
<clipPath id="iclip0_68_1940">
<rect width="26" height="26"/>
</clipPath>
</defs>
</symbol><symbol viewBox="0 0 28 28" id="iconback" xmlns="http://www.w3.org/2000/svg">
<path fill-rule="evenodd" clip-rule="evenodd" d="M7.72414 3.10346C7.72414 2.35927 6.94258 1.88347 6.32069 2.29221C6.29248 2.31075 6.26435 2.32939 6.23628 2.34812C5.67959 2.71979 5.75942 3.60583 5.79142 4.27443C5.79254 4.29775 5.7931 4.32122 5.7931 4.34483V10.1379C5.7931 10.9378 5.14469 11.5862 4.34483 11.5862C3.54497 11.5862 2.89655 10.9378 2.89655 10.1379V8.41176C2.89655 7.45691 1.7721 7.11068 1.36048 7.97225C0.488315 9.79781 0 11.8419 0 14C0 16.1581 0.488315 18.2022 1.36048 20.0277C1.7721 20.8893 2.89655 20.5431 2.89655 19.5882V16.8966C2.89655 16.0967 3.54497 15.4483 4.34483 15.4483C5.14469 15.4483 5.7931 16.0967 5.7931 16.8966V22.6897C5.7931 23.4895 5.14469 24.1379 4.34483 24.1379C4.34482 24.1379 4.34481 24.1379 4.34482 24.138C4.95382 24.7181 5.61503 25.244 6.32068 25.7078C6.94258 26.1165 7.72414 25.6407 7.72414 24.8965V24.6207C7.72414 23.8208 8.37255 23.1724 9.17241 23.1724C9.97227 23.1724 10.6207 23.8208 10.6207 24.6207V26.807C10.6207 27.2666 10.9334 27.6709 11.385 27.7562C12.2322 27.9163 13.1063 28 14 28C14.8937 28 15.7678 27.9163 16.615 27.7562C17.0666 27.6709 17.3793 27.2666 17.3793 26.807V24.6207C17.3793 23.8208 18.0277 23.1724 18.8276 23.1724C19.6274 23.1724 20.2759 23.8208 20.2759 24.6207V24.8965C20.2759 25.6407 21.0574 26.1165 21.6793 25.7078C22.385 25.244 23.0462 24.7181 23.6552 24.138C23.6552 24.1379 23.6552 24.1379 23.6552 24.1379C22.8553 24.1379 22.2069 23.4895 22.2069 22.6897V16.8966C22.2069 16.0967 22.8553 15.4483 23.6552 15.4483C24.455 15.4483 25.1034 16.0967 25.1034 16.8966V19.5882C25.1034 20.5431 26.2279 20.8893 26.6395 20.0277C27.5117 18.2022 28 16.1581 28 14C28 11.8419 27.5117 9.79781 26.6395 7.97225C26.2279 7.11068 25.1034 7.45691 25.1034 8.41176V10.1379C25.1034 10.9378 24.455 11.5862 23.6552 11.5862C22.8553 11.5862 22.2069 10.9378 22.2069 10.1379V4.34483C22.2069 4.32122 22.2075 4.29775 22.2086 4.27443C22.2406 3.60583 22.3204 2.71979 21.7637 2.34812C21.7357 2.32939 21.7075 2.31075 21.6793 2.29221C21.0574 1.88347 20.2759 2.35927 20.2759 3.10346V3.37931C20.2759 4.17917 19.6274 4.82759 18.8276 4.82759C18.0277 4.82759 17.3793 4.17917 17.3793 3.37931V1.19298C17.3793 0.733356 17.0666 0.329131 16.615 0.243801C15.7678 0.0837397 14.8937 0 14 0C13.1063 0 12.2322 0.0837396 11.385 0.243801C10.9334 0.32913 10.6207 0.733356 10.6207 1.19298V3.37931C10.6207 4.17917 9.97227 4.82759 9.17241 4.82759C8.37255 4.82759 7.72414 4.17917 7.72414 3.37931V3.10346ZM12.5517 4.34483C12.5517 3.54497 13.2001 2.89655 14 2.89655C14.7999 2.89655 15.4483 3.54497 15.4483 4.34483V10.1379C15.4483 10.9378 14.7999 11.5862 14 11.5862C13.2001 11.5862 12.5517 10.9378 12.5517 10.1379V4.34483ZM9.17241 9.65517C8.37255 9.65517 7.72414 10.3036 7.72414 11.1034V16.8966C7.72414 17.6964 8.37255 18.3448 9.17241 18.3448C9.97227 18.3448 10.6207 17.6964 10.6207 16.8966V11.1034C10.6207 10.3036 9.97227 9.65517 9.17241 9.65517ZM18.8276 9.65517C18.0277 9.65517 17.3793 10.3036 17.3793 11.1034V16.8966C17.3793 17.6964 18.0277 18.3448 18.8276 18.3448C19.6274 18.3448 20.2759 17.6964 20.2759 16.8966V11.1034C20.2759 10.3036 19.6274 9.65517 18.8276 9.65517ZM14 15.4483C13.2001 15.4483 12.5517 16.0967 12.5517 16.8966V22.6897C12.5517 23.4895 13.2001 24.1379 14 24.1379C14.7999 24.1379 15.4483 23.4895 15.4483 22.6897V16.8966C15.4483 16.0967 14.7999 15.4483 14 15.4483Z"/>
</symbol><symbol viewBox="0 0 28 28" id="iconleather" xmlns="http://www.w3.org/2000/svg">
<g clip-path="url(#kclip0_68_1932)">
<path d="M24.2205 19.9591C23.5298 19.6135 22.9955 19.1416 22.5864 18.517V18.5165C19.8925 14.4028 22.9457 11.3561 25.0058 9.90631C25.6757 9.43436 25.9639 8.59212 25.7216 7.81118L25.014 5.52737C24.7739 4.75245 24.0663 4.22084 23.253 4.20503C20.3167 4.14717 18.3318 2.33002 17.7734 1.10305C17.4688 0.433125 16.7972 0 16.0622 0H11.9377C11.2027 0 10.5311 0.433125 10.2265 1.10305C9.76153 2.12455 7.90238 4.1428 4.7468 4.20498C3.93359 4.22084 3.22594 4.7524 2.98586 5.52732L2.2782 7.81112C2.03594 8.59206 2.32414 9.43431 2.99406 9.90626C5.05414 11.356 8.10734 14.4027 5.41344 18.517C5.00438 19.1415 4.47008 19.6135 3.77938 19.9591C2.73315 20.4816 2.41798 21.8325 3.12859 22.7712L4.60625 24.7214C5.15586 25.4471 6.14133 25.6757 6.94961 25.265C8.75266 24.349 11.3148 24.0066 13.2813 27.5761C13.5926 28.1408 14.4069 28.1416 14.7185 27.5761C16.6851 24.0066 19.2472 24.349 21.0502 25.265C21.8585 25.6757 22.844 25.4471 23.3936 24.7214L24.8713 22.7712C25.5829 21.8311 25.2652 20.481 24.2205 19.9591ZM13.9999 3.33599C15.3567 3.33599 16.4609 4.44013 16.4609 5.79698C16.4609 7.15384 15.3567 8.25798 13.9999 8.25798C12.6431 8.25798 11.539 7.15384 11.539 5.79698C11.539 4.44013 12.6431 3.33599 13.9999 3.33599ZM13.9999 21.3832C13.5471 21.3832 13.1796 21.0157 13.1796 20.5629C13.1796 20.1101 13.5471 19.7426 13.9999 19.7426C14.4527 19.7426 14.8202 20.1101 14.8202 20.5629C14.8202 21.0157 14.4527 21.3832 13.9999 21.3832ZM17.5016 18.1019H10.4983C10.0455 18.1019 9.67797 17.7344 9.67797 17.2816C9.67797 16.8288 10.0455 16.4613 10.4983 16.4613H17.5016C17.9544 16.4613 18.3219 16.8288 18.3219 17.2816C18.3219 17.7344 17.9544 18.1019 17.5016 18.1019ZM17.5016 14.8206H10.4983C10.0455 14.8206 9.67797 14.4531 9.67797 14.0003C9.67797 13.5475 10.0455 13.18 10.4983 13.18H17.5016C17.9544 13.18 18.3219 13.5475 18.3219 14.0003C18.3219 14.4531 17.9544 14.8206 17.5016 14.8206ZM17.5016 11.5393H10.4983C10.0455 11.5393 9.67797 11.1718 9.67797 10.719C9.67797 10.2662 10.0455 9.89866 10.4983 9.89866H17.5016C17.9544 9.89866 18.3219 10.2662 18.3219 10.719C18.3219 11.1718 17.9544 11.5393 17.5016 11.5393ZM13.9999 6.6173C14.4522 6.6173 14.8202 6.24925 14.8202 5.79698C14.8202 5.34472 14.4522 4.97667 13.9999 4.97667C13.5477 4.97667 13.1796 5.34472 13.1796 5.79698C13.1796 6.24925 13.5477 6.6173 13.9999 6.6173Z"/>
</g>
<defs>
<clipPath id="kclip0_68_1932">
<rect width="28" height="28"/>
</clipPath>
</defs>
</symbol><symbol viewBox="0 0 20 19" id="mail" xmlns="http://www.w3.org/2000/svg">
<path d="M14.939 0.695312C16.28 0.695312 17.57 1.22531 18.519 2.17631C19.469 3.12531 20 4.40531 20 5.74531V13.6453C20 16.4353 17.73 18.6953 14.939 18.6953H5.06C2.269 18.6953 0 16.4353 0 13.6453V5.74531C0 2.95531 2.259 0.695312 5.06 0.695312H14.939ZM16.07 5.89531C15.86 5.88431 15.66 5.95531 15.509 6.09531L11 9.69531C10.42 10.1763 9.589 10.1763 9 9.69531L4.5 6.09531C4.189 5.86531 3.759 5.89531 3.5 6.16531C3.23 6.43531 3.2 6.86531 3.429 7.16531L3.56 7.29531L8.11 10.8453C8.67 11.2853 9.349 11.5253 10.06 11.5253C10.769 11.5253 11.46 11.2853 12.019 10.8453L16.53 7.23531L16.61 7.15531C16.849 6.86531 16.849 6.44531 16.599 6.15531C16.46 6.00631 16.269 5.91531 16.07 5.89531Z"/>
</symbol><symbol viewBox="0 0 71 99" id="mapmark" xmlns="http://www.w3.org/2000/svg">
<path d="M60.019 10.1555C53.4705 3.60694 44.7632 0 35.5027 0C26.2403 0 17.5349 3.60694 10.9864 10.1555C-1.13259 22.2726 -2.63864 45.0713 7.72475 58.8844L35.5027 99L63.239 58.9404C73.644 45.0713 72.1379 22.2726 60.019 10.1555ZM35.8227 47.0077C28.8457 47.0077 23.1668 41.3288 23.1668 34.3518C23.1668 27.3747 28.8457 21.6959 35.8227 21.6959C42.7997 21.6959 48.4786 27.3747 48.4786 34.3518C48.4786 41.3288 42.7997 47.0077 35.8227 47.0077Z"/>
</symbol><symbol viewBox="0 0 93 93" id="mapmark2" xmlns="http://www.w3.org/2000/svg">
<path d="M70.3394 9.53999C64.1061 3.38833 55.818 0 47.0033 0C38.1869 0 29.9006 3.38833 23.6673 9.53999C12.1318 20.9227 10.6983 42.3397 20.5627 55.3156L47.0033 93L73.4044 55.3683C83.3084 42.3397 81.8749 20.9227 70.3394 9.53999Z"/>
<path fill-rule="evenodd" clip-rule="evenodd" d="M47 52C57.4934 52 66 43.4934 66 33C66 22.5066 57.4934 14 47 14C36.5066 14 28 22.5066 28 33C28 43.4934 36.5066 52 47 52ZM56.8103 37.1115L49.0653 24.0295C48.1475 22.479 45.8525 22.479 44.9347 24.0295L37.1897 37.1115C36.2718 38.662 37.4193 40.6 39.2551 40.6H54.7449C56.5809 40.6 57.7282 38.662 56.8103 37.1115Z"/>
</symbol><symbol viewBox="0 0 18 22" id="mark" xmlns="http://www.w3.org/2000/svg">
<path d="M14.9445 2.46193C13.357 0.874409 11.2462 0 9.00118 0C6.75577 0 4.64535 0.874409 3.05783 2.46193C0.119905 5.39942 -0.245199 10.9264 2.26714 14.275L6.53464 20.4379C7.72766 22.1608 10.2746 22.1608 11.4676 20.4378L15.7251 14.2886C18.2476 10.9264 17.8825 5.39942 14.9445 2.46193ZM9.07876 11.3958C7.38736 11.3958 6.01066 10.0191 6.01066 8.3277C6.01066 6.6363 7.38736 5.2596 9.07876 5.2596C10.7702 5.2596 12.1469 6.6363 12.1469 8.3277C12.1469 10.0191 10.7702 11.3958 9.07876 11.3958Z"/>
</symbol><symbol viewBox="0 0 18 18" id="paperclip" xmlns="http://www.w3.org/2000/svg">
<path d="M16.08 8.2872L9.18747 15.1797C8.34309 16.0241 7.19786 16.4984 6.00372 16.4984C4.80959 16.4984 3.66436 16.0241 2.81997 15.1797C1.97559 14.3353 1.50122 13.1901 1.50122 11.9959C1.50122 10.8018 1.97559 9.65658 2.81997 8.8122L9.71247 1.9197C10.2754 1.35677 11.0389 1.04053 11.835 1.04053C12.6311 1.04053 13.3946 1.35677 13.9575 1.9197C14.5204 2.48262 14.8366 3.2461 14.8366 4.0422C14.8366 4.83829 14.5204 5.60177 13.9575 6.1647L7.05747 13.0572C6.77601 13.3387 6.39427 13.4968 5.99622 13.4968C5.59818 13.4968 5.21643 13.3387 4.93497 13.0572C4.65351 12.7757 4.49539 12.394 4.49539 11.9959C4.49539 11.5979 4.65351 11.2162 4.93497 10.9347L11.3025 4.5747" stroke-width="2" stroke-linecap="round" stroke-linejoin="round"/>
</symbol><symbol viewBox="0 0 20 20" id="phone" xmlns="http://www.w3.org/2000/svg">
<g clip-path="url(#qclip0_68_2123)">
<path d="M13.3335 1.6665V6.6665H18.3335" stroke-width="2" stroke-linecap="round" stroke-linejoin="round"/>
<path d="M19.1668 0.833496L13.3335 6.66683" stroke-width="2" stroke-linecap="round" stroke-linejoin="round"/>
<path d="M18.3332 14.0999V16.5999C18.3341 16.832 18.2866 17.0617 18.1936 17.2744C18.1006 17.487 17.9643 17.6779 17.7933 17.8348C17.6222 17.9917 17.4203 18.1112 17.2005 18.1855C16.9806 18.2599 16.7477 18.2875 16.5165 18.2666C13.9522 17.988 11.489 17.1117 9.32486 15.7083C7.31139 14.4288 5.60431 12.7217 4.32486 10.7083C2.91651 8.53425 2.04007 6.05908 1.76653 3.48325C1.7457 3.25281 1.77309 3.02055 1.84695 2.80127C1.9208 2.58199 2.03951 2.38049 2.1955 2.2096C2.3515 2.03871 2.54137 1.90218 2.75302 1.80869C2.96468 1.7152 3.19348 1.6668 3.42486 1.66658H5.92486C6.32929 1.6626 6.72136 1.80582 7.028 2.06953C7.33464 2.33324 7.53493 2.69946 7.59153 3.09992C7.69705 3.89997 7.89274 4.68552 8.17486 5.44158C8.28698 5.73985 8.31125 6.06401 8.24479 6.37565C8.17832 6.68729 8.02392 6.97334 7.79986 7.19992L6.74153 8.25825C7.92783 10.3445 9.65524 12.072 11.7415 13.2583L12.7999 12.1999C13.0264 11.9759 13.3125 11.8215 13.6241 11.755C13.9358 11.6885 14.2599 11.7128 14.5582 11.8249C15.3143 12.107 16.0998 12.3027 16.8999 12.4083C17.3047 12.4654 17.6744 12.6693 17.9386 12.9812C18.2029 13.2931 18.3433 13.6912 18.3332 14.0999Z" stroke-width="2" stroke-linecap="round" stroke-linejoin="round"/>
</g>
<defs>
<clipPath id="qclip0_68_2123">
<rect width="20" height="20"/>
</clipPath>
</defs>
</symbol><symbol viewBox="0 0 18 18" id="search" xmlns="http://www.w3.org/2000/svg">
<g opacity="1">
<path d="M8.25 14.25C11.5637 14.25 14.25 11.5637 14.25 8.25C14.25 4.93629 11.5637 2.25 8.25 2.25C4.93629 2.25 2.25 4.93629 2.25 8.25C2.25 11.5637 4.93629 14.25 8.25 14.25Z" stroke-width="2" stroke-linecap="round" stroke-linejoin="round"/>
<path d="M15.7498 15.7501L12.4873 12.4875" stroke-width="2" stroke-linecap="round" stroke-linejoin="round"/>
</g>
</symbol><symbol viewBox="0 0 20 20" id="send" xmlns="http://www.w3.org/2000/svg">
<g clip-path="url(#sclip0_68_378)">
<path d="M18.3337 1.6665L9.16699 10.8332" stroke-width="2" stroke-linecap="round" stroke-linejoin="round"/>
<path d="M18.3337 1.6665L12.5003 18.3332L9.16699 10.8332L1.66699 7.49984L18.3337 1.6665Z" stroke-width="2" stroke-linecap="round" stroke-linejoin="round"/>
</g>
<defs>
<clipPath id="sclip0_68_378">
<rect width="20" height="20"/>
</clipPath>
</defs>
</symbol><symbol viewBox="0 0 13 12" id="star" xmlns="http://www.w3.org/2000/svg">
<path d="M5.54894 0.92705C5.8483 0.00573919 7.1517 0.00573989 7.45106 0.927051L8.18386 3.18237C8.31773 3.5944 8.70169 3.87336 9.13491 3.87336L11.5063 3.87336C12.475 3.87336 12.8778 5.11297 12.0941 5.68237L10.1756 7.07624C9.8251 7.33088 9.67845 7.78225 9.81232 8.19427L10.5451 10.4496C10.8445 11.3709 9.78999 12.137 9.00628 11.5676L7.08778 10.1738C6.7373 9.91912 6.2627 9.91912 5.91221 10.1738L3.99372 11.5676C3.21001 12.137 2.15553 11.3709 2.45488 10.4496L3.18768 8.19427C3.32155 7.78225 3.1749 7.33088 2.82441 7.07624L0.905917 5.68237C0.122203 5.11297 0.524979 3.87336 1.4937 3.87336L3.86509 3.87336C4.29832 3.87336 4.68227 3.5944 4.81614 3.18237L5.54894 0.92705Z"/>
</symbol><symbol viewBox="0 0 20 20" id="trash" xmlns="http://www.w3.org/2000/svg">
<path d="M2.5 5H4.16667H17.5" stroke-width="1.5" stroke-linecap="round" stroke-linejoin="round"/>
<path d="M6.66667 5.00008V3.33341C6.66667 2.89139 6.84226 2.46746 7.15482 2.1549C7.46738 1.84234 7.89131 1.66675 8.33334 1.66675H11.6667C12.1087 1.66675 12.5326 1.84234 12.8452 2.1549C13.1577 2.46746 13.3333 2.89139 13.3333 3.33341V5.00008M15.8333 5.00008V16.6667C15.8333 17.1088 15.6577 17.5327 15.3452 17.8453C15.0326 18.1578 14.6087 18.3334 14.1667 18.3334H5.83333C5.39131 18.3334 4.96738 18.1578 4.65482 17.8453C4.34226 17.5327 4.16667 17.1088 4.16667 16.6667V5.00008H15.8333Z" stroke-width="1.5" stroke-linecap="round" stroke-linejoin="round"/>
<path d="M8.33333 9.16675V14.1667" stroke-width="1.5" stroke-linecap="round" stroke-linejoin="round"/>
<path d="M11.6667 9.16675V14.1667" stroke-width="1.5" stroke-linecap="round" stroke-linejoin="round"/>
</symbol><symbol viewBox="0 0 39 39" id="trolley" xmlns="http://www.w3.org/2000/svg">
<path d="M37.3762 27.7606L20.025 30.6519C19.6356 29.2405 18.7424 28.0208 17.5145 27.2235C16.2865 26.4262 14.8089 26.1066 13.3612 26.3251L7.48048 1.32914C7.43758 1.14659 7.32784 0.986736 7.17291 0.881088C7.01798 0.77544 6.82909 0.731664 6.64348 0.758391L1.39348 1.50839C1.29396 1.51995 1.19776 1.55133 1.11056 1.60068C1.02337 1.65003 0.946944 1.71635 0.885805 1.79572C0.824666 1.8751 0.780051 1.96592 0.754594 2.06282C0.729137 2.15973 0.723354 2.26075 0.737586 2.35992C0.751818 2.4591 0.785778 2.55442 0.837459 2.64025C0.889141 2.72609 0.957496 2.8007 1.03849 2.85967C1.11948 2.91865 1.21147 2.96081 1.30903 2.98364C1.40658 3.00648 1.50772 3.00954 1.60648 2.99264L6.17698 2.34014L11.9145 26.7234C10.9153 27.1456 10.0493 27.8308 9.40857 28.7061C8.76784 29.5813 8.37637 30.6139 8.27582 31.694C8.17526 32.774 8.36938 33.8611 8.83752 34.8396C9.30566 35.8181 10.0303 36.6514 10.9344 37.2508C11.8384 37.8503 12.888 38.1934 13.9716 38.2437C15.0552 38.2941 16.1321 38.0497 17.0878 37.5367C18.0435 37.0236 18.8423 36.2611 19.3991 35.3302C19.9559 34.3993 20.25 33.3349 20.25 32.2501C20.25 32.2119 20.2447 32.1751 20.244 32.1369L37.6237 29.2404C37.82 29.2076 37.9951 29.0981 38.1107 28.9362C38.2262 28.7742 38.2727 28.573 38.2399 28.3768C38.207 28.1805 38.0976 28.0054 37.9356 27.8898C37.7737 27.7743 37.5725 27.7278 37.3762 27.7606ZM14.25 36.7501C13.36 36.7501 12.4899 36.4862 11.7499 35.9918C11.0099 35.4973 10.4331 34.7945 10.0925 33.9722C9.75193 33.1499 9.66282 32.2451 9.83645 31.3722C10.0101 30.4993 10.4387 29.6975 11.068 29.0682C11.6973 28.4388 12.4992 28.0102 13.3721 27.8366C14.245 27.663 15.1498 27.7521 15.9721 28.0927C16.7943 28.4333 17.4971 29.0101 17.9916 29.7501C18.4861 30.4901 18.75 31.3601 18.75 32.2501C18.7488 33.4432 18.2743 34.5872 17.4306 35.4308C16.587 36.2745 15.4431 36.7489 14.25 36.7501Z"/>
<path d="M18.1502 14.2359L29.4002 11.9859C29.4968 11.9662 29.5886 11.9277 29.6703 11.8725C29.752 11.8174 29.822 11.7466 29.8763 11.6643C29.9307 11.5821 29.9682 11.4899 29.9869 11.3931C30.0056 11.2963 30.005 11.1968 29.9852 11.1002L28.4852 3.60018C28.4655 3.50365 28.427 3.41194 28.3719 3.33029C28.3167 3.24865 28.2461 3.17866 28.1639 3.12434C28.0817 3.07001 27.9896 3.03241 27.8929 3.01368C27.7962 2.99495 27.6967 2.99546 27.6002 3.01518L16.3502 5.26518C16.2536 5.28486 16.1619 5.32336 16.0803 5.37849C15.9986 5.43362 15.9287 5.5043 15.8743 5.58648C15.82 5.66867 15.7824 5.76075 15.7637 5.85747C15.7449 5.95419 15.7455 6.05365 15.7652 6.15018L17.2652 13.6502C17.2848 13.7468 17.3232 13.8386 17.3783 13.9203C17.4334 14.002 17.5041 14.0721 17.5863 14.1265C17.6685 14.1809 17.7606 14.2186 17.8573 14.2373C17.9541 14.2561 18.0536 14.2556 18.1502 14.2359ZM27.1644 4.63593L28.3704 10.6652L18.5889 12.6182L17.3829 6.58893L27.1644 4.63593Z"/>
<path d="M36.7372 13.3623C36.7007 13.1686 36.5894 12.9971 36.4274 12.8848C36.2655 12.7726 36.0658 12.7286 35.8717 12.7623L18.6217 15.7623C18.5238 15.7794 18.4303 15.8157 18.3466 15.8692C18.2629 15.9227 18.1907 15.9923 18.1341 16.0739C18.0775 16.1555 18.0377 16.2476 18.017 16.3447C17.9963 16.4419 17.9951 16.5422 18.0134 16.6398L20.2634 28.6398C20.2959 28.8114 20.3872 28.9663 20.5217 29.0777C20.6561 29.1892 20.8253 29.2502 20.9999 29.2503C21.0431 29.2501 21.0863 29.2466 21.1289 29.2398L38.3789 26.2398C38.4768 26.2228 38.5704 26.1866 38.6542 26.1331C38.738 26.0797 38.8103 26.0101 38.867 25.9284C38.9236 25.8468 38.9635 25.7547 38.9843 25.6575C39.005 25.5603 39.0063 25.46 38.9879 25.3623L36.7372 13.3623ZM21.5999 27.6348L19.6267 17.1093L35.3999 14.3666L37.3739 24.8921L21.5999 27.6348Z"/>
</symbol><symbol viewBox="0 0 20 20" id="user" xmlns="http://www.w3.org/2000/svg">
<path d="M16.6668 17.5V15.8333C16.6668 14.9493 16.3156 14.1014 15.6905 13.4763C15.0654 12.8512 14.2176 12.5 13.3335 12.5H6.66683C5.78277 12.5 4.93493 12.8512 4.30981 13.4763C3.68469 14.1014 3.3335 14.9493 3.3335 15.8333V17.5" stroke-width="2" stroke-linecap="round" stroke-linejoin="round"/>
<path d="M9.99984 9.16667C11.8408 9.16667 13.3332 7.67428 13.3332 5.83333C13.3332 3.99238 11.8408 2.5 9.99984 2.5C8.15889 2.5 6.6665 3.99238 6.6665 5.83333C6.6665 7.67428 8.15889 9.16667 9.99984 9.16667Z" stroke-width="2" stroke-linecap="round" stroke-linejoin="round"/>
</symbol></svg>