<svg width="93" height="93" viewBox="0 0 93 93" fill="none" xmlns="http://www.w3.org/2000/svg">
<path d="M70.3394 9.53999C64.1061 3.38833 55.818 0 47.0033 0C38.1869 0 29.9006 3.38833 23.6673 9.53999C12.1318 20.9227 10.6983 42.3397 20.5627 55.3156L47.0033 93L73.4044 55.3683C83.3084 42.3397 81.8749 20.9227 70.3394 9.53999Z" fill="#0074D4"/>
<path fill-rule="evenodd" clip-rule="evenodd" d="M47 52C57.4934 52 66 43.4934 66 33C66 22.5066 57.4934 14 47 14C36.5066 14 28 22.5066 28 33C28 43.4934 36.5066 52 47 52ZM56.8103 37.1115L49.0653 24.0295C48.1475 22.479 45.8525 22.479 44.9347 24.0295L37.1897 37.1115C36.2718 38.662 37.4193 40.6 39.2551 40.6H54.7449C56.5809 40.6 57.7282 38.662 56.8103 37.1115Z" fill="white"/>
</svg>
